<svg xmlns="http://www.w3.org/2000/svg" height="48" viewBox="0 -960 960 960" width="48"><path d="M480.061-290.923q62.67 0 105.112-42.567 42.443-42.568 42.443-105.164 0-61.846-42.619-104.673-42.619-42.827-105.289-42.827t-104.997 42.827q-42.327 42.827-42.327 105.173 0 62.346 42.504 104.789 42.503 42.442 105.173 42.442Zm-.458-43.769q-43.372 0-73.411-29.591-30.038-29.59-30.038-73.807 0-44.218 30.116-74.256 30.116-30.039 73.692-30.039 43.576 0 73.73 29.68 30.154 29.679 30.154 74.192 0 44.513-29.835 74.167-29.836 29.654-74.408 29.654ZM172.384-144q-27.782 0-48.083-20.301T104-212.384v-452.078q0-28.362 20.301-48.373t48.083-20.011h125.77L375.923-816h209.154l77.769 83.154h124.77q28.362 0 48.373 20.011T856-664.462v452.078q0 27.782-20.011 48.083T787.616-144H172.384Zm0-43.769h615.232q10.769 0 17.692-6.923t6.923-17.692v-452.078q0-10-6.923-17.307-6.923-7.308-17.692-7.308H643.692l-77.769-83.154H394.077l-76.769 83.154H172.384q-10.769 0-17.692 7.308-6.923 7.307-6.923 17.307v452.078q0 10.769 6.923 17.692t17.692 6.923ZM480-438.538Z"/></svg>